<?xml version="1.0" encoding="UTF-8"?>
<svg id="_图层_1" data-name="图层_1" xmlns="http://www.w3.org/2000/svg" version="1.1" viewBox="0 0 640 640">
  <!-- Generator: Adobe Illustrator 29.0.0, SVG Export Plug-In . SVG Version: 2.1.0 Build 186)  -->
  <defs>
    <style>
      .st0 {
        fill: #00a435;
      }
    </style>
  </defs>
  <path class="st0" d="M320,576c-141.4,0-256-114.6-256-256S178.6,64,320,64s256,114.6,256,256-114.6,256-256,256ZM438,209.7c-10.7-7.8-25.7-5.4-33.5,5.3l-119.4,164.2-52.1-52.1c-9.4-9.4-24.6-9.4-33.9,0-9.3,9.4-9.4,24.6,0,33.9l72,72c5,5,11.8,7.5,18.8,7s13.4-4.1,17.5-9.8l135.9-187c7.8-10.7,5.4-25.7-5.3-33.5Z"/>
</svg>