<?xml version="1.0" encoding="UTF-8"?>
<svg id="_图层_1" data-name="图层_1" xmlns="http://www.w3.org/2000/svg" version="1.1" viewBox="0 0 640 640">
  <!-- Generator: Adobe Illustrator 29.0.0, SVG Export Plug-In . SVG Version: 2.1.0 Build 186)  -->
  <defs>
    <style>
      .st0 {
        fill: #b13210;
      }
    </style>
  </defs>
  <path class="st0" d="M320,64c-141.4,0-256,114.6-256,256s114.6,256,256,256,256-114.6,256-256S461.4,64,320,64ZM445.7,445.6c-8.6,8.6-22.6,8.6-31.2,0l-94.5-94.5-94.5,94.5c-8.6,8.6-22.6,8.6-31.2,0-8.6-8.6-8.6-22.6,0-31.2l94.5-94.5-94.5-94.5c-8.6-8.6-8.6-22.6,0-31.2,8.6-8.6,22.6-8.6,31.2,0l94.5,94.5,94.5-94.5c8.6-8.6,22.6-8.6,31.2,0,8.6,8.6,8.6,22.6,0,31.2l-94.5,94.5,94.5,94.5c8.6,8.6,8.6,22.6,0,31.2Z"/>
</svg>