<?xml version="1.0" encoding="UTF-8"?>
<svg id="_图层_1" data-name="图层_1" xmlns="http://www.w3.org/2000/svg" version="1.1" viewBox="0 0 640 640">
  <!-- Generator: Adobe Illustrator 29.0.0, SVG Export Plug-In . SVG Version: 2.1.0 Build 186)  -->
  <defs>
    <style>
      .st0 {
        fill: #2781ff;
      }
    </style>
  </defs>
  <path class="st0" d="M320,576c141.4,0,256-114.6,256-256S461.4,64,320,64,64,178.6,64,320s114.6,256,256,256ZM288,224c0-17.7,14.3-32,32-32s32,14.3,32,32-14.3,32-32,32-32-14.3-32-32ZM280,288h48c13.3,0,24,10.7,24,24v88h8c13.3,0,24,10.7,24,24s-10.7,24-24,24h-80c-13.3,0-24-10.7-24-24s10.7-24,24-24h24v-64h-24c-13.3,0-24-10.7-24-24s10.7-24,24-24Z"/>
</svg>