<?xml version="1.0" standalone="no"?><!DOCTYPE svg PUBLIC "-//W3C//DTD SVG 1.1//EN" "http://www.w3.org/Graphics/SVG/1.1/DTD/svg11.dtd"><svg t="1757326176891" class="icon" viewBox="0 0 1024 1024" version="1.1" xmlns="http://www.w3.org/2000/svg" p-id="22861" xmlns:xlink="http://www.w3.org/1999/xlink" width="200" height="200"><path d="M512 512m-512 0a512 512 0 1 0 1024 0 512 512 0 1 0-1024 0Z" fill="#3AA5FF" p-id="22862"></path><path d="M512 768a34.909091 34.909091 0 0 0 34.909091-34.909091v-302.545454a34.909091 34.909091 0 1 0-69.818182 0v302.545454c0 19.269818 15.639273 34.909091 34.909091 34.909091zM512 279.272727a34.909091 34.909091 0 1 0 0 69.818182 34.909091 34.909091 0 0 0 0-69.818182z" fill="#FFFFFF" p-id="22863"></path></svg>