<?xml version="1.0" encoding="UTF-8"?>
<svg id="_图层_1" data-name="图层_1" xmlns="http://www.w3.org/2000/svg" version="1.1" viewBox="0 0 640 640">
  <!-- Generator: Adobe Illustrator 29.0.0, SVG Export Plug-In . SVG Version: 2.1.0 Build 186)  -->
  <defs>
    <style>
      .st0 {
        fill: #ffa738;
      }
    </style>
  </defs>
  <path class="st0" d="M320,576c-141.4,0-256-114.6-256-256S178.6,64,320,64s256,114.6,256,256-114.6,256-256,256ZM320,384c-17.7,0-32,14.3-32,32s14.3,32,32,32,32-14.3,32-32-14.3-32-32-32ZM320,192c-18.2,0-32.7,15.5-31.4,33.7l7.4,104c.9,12.6,11.4,22.3,23.9,22.3s23-9.7,23.9-22.3l7.4-104c1.3-18.2-13.1-33.7-31.4-33.7h.2Z"/>
</svg>